<svg width="15" height="15" viewBox="0 0 15 15" fill="none" xmlns="http://www.w3.org/2000/svg">
<g id="arrow">
<path id="shape" d="M7.95885 9.36986C7.8226 9.37013 7.69055 9.32267 7.58564 9.23574L4.08677 6.32002C3.83879 6.1139 3.80485 5.74577 4.01097 5.49778C4.21708 5.2498 4.58521 5.21586 4.8332 5.42198L7.95885 8.03446L11.0845 5.51528C11.205 5.41744 11.3595 5.37167 11.5138 5.38809C11.6681 5.4045 11.8095 5.48176 11.9067 5.60275C12.0147 5.72396 12.0672 5.88469 12.0518 6.04627C12.0363 6.20784 11.9541 6.35565 11.8251 6.45414L8.32623 9.27073C8.2183 9.34392 8.08895 9.37882 7.95885 9.36986Z" fill="#637381"/>
</g>
</svg>
