<svg width="111" height="19" viewBox="0 0 111 19" fill="none" xmlns="http://www.w3.org/2000/svg">
<path d="M0.68 18V0.719999H3.284L9.26 12.96L15.236 0.719999H17.84V18H15.14V6.924L9.836 18H8.684L3.392 6.924V18H0.68ZM24.8353 18.36C23.8993 18.36 23.1073 18.184 22.4593 17.832C21.8113 17.472 21.3193 16.996 20.9833 16.404C20.6553 15.812 20.4913 15.16 20.4913 14.448C20.4913 13.824 20.5953 13.264 20.8033 12.768C21.0113 12.264 21.3313 11.832 21.7633 11.472C22.1953 11.104 22.7553 10.804 23.4433 10.572C23.9633 10.404 24.5713 10.252 25.2673 10.116C25.9713 9.98 26.7313 9.856 27.5473 9.744C28.3713 9.624 29.2313 9.496 30.1273 9.36L29.0953 9.948C29.1033 9.052 28.9033 8.392 28.4953 7.968C28.0873 7.544 27.3993 7.332 26.4313 7.332C25.8473 7.332 25.2833 7.468 24.7393 7.74C24.1953 8.012 23.8153 8.48 23.5993 9.144L20.9593 8.316C21.2793 7.22 21.8873 6.34 22.7833 5.676C23.6873 5.012 24.9033 4.68 26.4313 4.68C27.5833 4.68 28.5953 4.868 29.4673 5.244C30.3473 5.62 30.9993 6.236 31.4233 7.092C31.6553 7.548 31.7953 8.016 31.8433 8.496C31.8913 8.968 31.9153 9.484 31.9153 10.044V18H29.3833V15.192L29.8033 15.648C29.2193 16.584 28.5353 17.272 27.7513 17.712C26.9753 18.144 26.0033 18.36 24.8353 18.36ZM25.4113 16.056C26.0673 16.056 26.6273 15.94 27.0913 15.708C27.5553 15.476 27.9233 15.192 28.1953 14.856C28.4753 14.52 28.6633 14.204 28.7593 13.908C28.9113 13.54 28.9953 13.12 29.0113 12.648C29.0353 12.168 29.0473 11.78 29.0473 11.484L29.9353 11.748C29.0633 11.884 28.3153 12.004 27.6913 12.108C27.0673 12.212 26.5313 12.312 26.0833 12.408C25.6353 12.496 25.2393 12.596 24.8953 12.708C24.5593 12.828 24.2753 12.968 24.0433 13.128C23.8113 13.288 23.6313 13.472 23.5033 13.68C23.3833 13.888 23.3233 14.132 23.3233 14.412C23.3233 14.732 23.4033 15.016 23.5633 15.264C23.7233 15.504 23.9553 15.696 24.2593 15.84C24.5713 15.984 24.9553 16.056 25.4113 16.056ZM42.6354 18C41.7794 18.16 40.9394 18.228 40.1154 18.204C39.2994 18.188 38.5674 18.04 37.9194 17.76C37.2714 17.472 36.7794 17.02 36.4434 16.404C36.1474 15.844 35.9914 15.272 35.9754 14.688C35.9594 14.104 35.9514 13.444 35.9514 12.708V1.44H38.8314V12.54C38.8314 13.06 38.8354 13.516 38.8434 13.908C38.8594 14.3 38.9434 14.62 39.0954 14.868C39.3834 15.348 39.8434 15.616 40.4754 15.672C41.1074 15.728 41.8274 15.696 42.6354 15.576V18ZM33.5994 7.308V5.04H42.6354V7.308H33.5994ZM54.3862 18V11.76C54.3862 11.352 54.3582 10.9 54.3022 10.404C54.2462 9.908 54.1142 9.432 53.9062 8.976C53.7062 8.512 53.4022 8.132 52.9942 7.836C52.5942 7.54 52.0502 7.392 51.3622 7.392C50.9942 7.392 50.6302 7.452 50.2702 7.572C49.9102 7.692 49.5822 7.9 49.2862 8.196C48.9982 8.484 48.7662 8.884 48.5902 9.396C48.4142 9.9 48.3262 10.548 48.3262 11.34L46.6102 10.608C46.6102 9.504 46.8222 8.504 47.2462 7.608C47.6782 6.712 48.3102 6 49.1422 5.472C49.9742 4.936 50.9982 4.668 52.2142 4.668C53.1742 4.668 53.9662 4.828 54.5902 5.148C55.2142 5.468 55.7102 5.876 56.0782 6.372C56.4462 6.868 56.7182 7.396 56.8942 7.956C57.0702 8.516 57.1822 9.048 57.2302 9.552C57.2862 10.048 57.3142 10.452 57.3142 10.764V18H54.3862ZM45.3982 18V0.719999H47.9782V9.816H48.3262V18H45.3982ZM73.9696 18.36L69.0376 13.452L70.8496 11.64L75.7576 16.548L73.9696 18.36ZM67.7536 18.36C66.0256 18.36 64.5456 17.984 63.3136 17.232C62.0816 16.472 61.1336 15.416 60.4696 14.064C59.8136 12.712 59.4856 11.144 59.4856 9.36C59.4856 7.576 59.8136 6.008 60.4696 4.656C61.1336 3.304 62.0816 2.252 63.3136 1.5C64.5456 0.739999 66.0256 0.36 67.7536 0.36C69.4816 0.36 70.9616 0.739999 72.1936 1.5C73.4336 2.252 74.3816 3.304 75.0376 4.656C75.7016 6.008 76.0336 7.576 76.0336 9.36C76.0336 11.144 75.7016 12.712 75.0376 14.064C74.3816 15.416 73.4336 16.472 72.1936 17.232C70.9616 17.984 69.4816 18.36 67.7536 18.36ZM67.7536 15.636C68.9136 15.644 69.8776 15.388 70.6456 14.868C71.4216 14.348 72.0016 13.616 72.3856 12.672C72.7776 11.728 72.9736 10.624 72.9736 9.36C72.9736 8.096 72.7776 7 72.3856 6.072C72.0016 5.136 71.4216 4.408 70.6456 3.888C69.8776 3.368 68.9136 3.1 67.7536 3.084C66.5936 3.076 65.6296 3.332 64.8616 3.852C64.0936 4.372 63.5136 5.104 63.1216 6.048C62.7376 6.992 62.5456 8.096 62.5456 9.36C62.5456 10.624 62.7376 11.724 63.1216 12.66C63.5056 13.588 64.0816 14.312 64.8496 14.832C65.6256 15.352 66.5936 15.62 67.7536 15.636ZM83.2822 18.372C82.3222 18.372 81.5302 18.212 80.9062 17.892C80.2822 17.572 79.7862 17.164 79.4182 16.668C79.0502 16.172 78.7782 15.644 78.6022 15.084C78.4262 14.524 78.3102 13.996 78.2542 13.5C78.2062 12.996 78.1822 12.588 78.1822 12.276V5.04H81.1102V11.28C81.1102 11.68 81.1382 12.132 81.1942 12.636C81.2502 13.132 81.3782 13.612 81.5782 14.076C81.7862 14.532 82.0902 14.908 82.4902 15.204C82.8982 15.5 83.4462 15.648 84.1342 15.648C84.5022 15.648 84.8662 15.588 85.2262 15.468C85.5862 15.348 85.9102 15.144 86.1982 14.856C86.4942 14.56 86.7302 14.156 86.9062 13.644C87.0822 13.132 87.1702 12.484 87.1702 11.7L88.8862 12.432C88.8862 13.536 88.6702 14.536 88.2382 15.432C87.8142 16.328 87.1862 17.044 86.3542 17.58C85.5222 18.108 84.4982 18.372 83.2822 18.372ZM87.5182 18V13.98H87.1702V5.04H90.0742V18H87.5182ZM93.6856 3.072V0.42H96.5776V3.072H93.6856ZM93.6856 18V5.04H96.5776V18H93.6856ZM98.9722 18V17.604L105.836 7.572H99.6682V5.04H110.336V5.448L103.496 15.468H110.048V18H98.9722Z" fill="#675AF0"/>
</svg>
