<svg width="36" height="36" viewBox="0 0 36 36" fill="none" xmlns="http://www.w3.org/2000/svg">
<g id="vuesax/outline/calendar">
<g id="calendar">
<path id="Vector" d="M12 8.625C11.385 8.625 10.875 8.115 10.875 7.5V3C10.875 2.385 11.385 1.875 12 1.875C12.615 1.875 13.125 2.385 13.125 3V7.5C13.125 8.115 12.615 8.625 12 8.625Z" fill="white"/>
<path id="Vector_2" d="M24 8.625C23.385 8.625 22.875 8.115 22.875 7.5V3C22.875 2.385 23.385 1.875 24 1.875C24.615 1.875 25.125 2.385 25.125 3V7.5C25.125 8.115 24.615 8.625 24 8.625Z" fill="white"/>
<path id="Vector_3" d="M12.75 21.75C12.555 21.75 12.36 21.705 12.18 21.63C11.985 21.555 11.835 21.45 11.685 21.315C11.415 21.03 11.25 20.655 11.25 20.25C11.25 20.055 11.295 19.86 11.37 19.68C11.445 19.5 11.55 19.335 11.685 19.185C11.835 19.05 11.985 18.945 12.18 18.87C12.72 18.645 13.395 18.765 13.815 19.185C14.085 19.47 14.25 19.86 14.25 20.25C14.25 20.34 14.235 20.445 14.22 20.55C14.205 20.64 14.175 20.73 14.13 20.82C14.1 20.91 14.055 21 13.995 21.09C13.95 21.165 13.875 21.24 13.815 21.315C13.53 21.585 13.14 21.75 12.75 21.75Z" fill="white"/>
<path id="Vector_4" d="M18 21.7501C17.805 21.7501 17.61 21.7051 17.43 21.6301C17.235 21.5551 17.085 21.45 16.935 21.315C16.665 21.03 16.5 20.6551 16.5 20.2501C16.5 20.0551 16.545 19.86 16.62 19.68C16.695 19.5 16.8 19.3351 16.935 19.1851C17.085 19.0501 17.235 18.945 17.43 18.87C17.97 18.63 18.645 18.7651 19.065 19.1851C19.335 19.4701 19.5 19.8601 19.5 20.2501C19.5 20.3401 19.485 20.4451 19.47 20.5501C19.455 20.6401 19.425 20.7301 19.38 20.8201C19.35 20.9101 19.305 21.0001 19.245 21.0901C19.2 21.1651 19.125 21.24 19.065 21.315C18.78 21.585 18.39 21.7501 18 21.7501Z" fill="white"/>
<path id="Vector_5" d="M23.25 21.7501C23.055 21.7501 22.86 21.7051 22.68 21.6301C22.485 21.5551 22.335 21.45 22.185 21.315C22.125 21.24 22.065 21.1651 22.005 21.0901C21.945 21.0001 21.9 20.9101 21.87 20.8201C21.825 20.7301 21.795 20.6401 21.78 20.5501C21.765 20.4451 21.75 20.3401 21.75 20.2501C21.75 19.8601 21.915 19.4701 22.185 19.1851C22.335 19.0501 22.485 18.945 22.68 18.87C23.235 18.63 23.895 18.7651 24.315 19.1851C24.585 19.4701 24.75 19.8601 24.75 20.2501C24.75 20.3401 24.735 20.4451 24.72 20.5501C24.705 20.6401 24.675 20.7301 24.63 20.8201C24.6 20.9101 24.555 21.0001 24.495 21.0901C24.45 21.1651 24.375 21.24 24.315 21.315C24.03 21.585 23.64 21.7501 23.25 21.7501Z" fill="white"/>
<path id="Vector_6" d="M12.75 27C12.555 27 12.36 26.9551 12.18 26.8801C12 26.8051 11.835 26.7 11.685 26.565C11.415 26.28 11.25 25.89 11.25 25.5C11.25 25.305 11.295 25.11 11.37 24.93C11.445 24.735 11.55 24.57 11.685 24.435C12.24 23.88 13.26 23.88 13.815 24.435C14.085 24.72 14.25 25.11 14.25 25.5C14.25 25.89 14.085 26.28 13.815 26.565C13.53 26.835 13.14 27 12.75 27Z" fill="white"/>
<path id="Vector_7" d="M18 27C17.61 27 17.22 26.835 16.935 26.565C16.665 26.28 16.5 25.89 16.5 25.5C16.5 25.305 16.545 25.11 16.62 24.93C16.695 24.735 16.8 24.57 16.935 24.435C17.49 23.88 18.51 23.88 19.065 24.435C19.2 24.57 19.305 24.735 19.38 24.93C19.455 25.11 19.5 25.305 19.5 25.5C19.5 25.89 19.335 26.28 19.065 26.565C18.78 26.835 18.39 27 18 27Z" fill="white"/>
<path id="Vector_8" d="M23.25 27.0001C22.86 27.0001 22.47 26.8351 22.185 26.5651C22.05 26.4301 21.945 26.2651 21.87 26.0701C21.795 25.8901 21.75 25.6951 21.75 25.5001C21.75 25.3051 21.795 25.1101 21.87 24.9301C21.945 24.7351 22.05 24.5701 22.185 24.4351C22.53 24.0901 23.055 23.9251 23.535 24.0301C23.64 24.0451 23.73 24.0751 23.82 24.1201C23.91 24.1501 24 24.1951 24.09 24.2551C24.165 24.3001 24.24 24.3751 24.315 24.4351C24.585 24.7201 24.75 25.1101 24.75 25.5001C24.75 25.8901 24.585 26.2801 24.315 26.5651C24.03 26.8351 23.64 27.0001 23.25 27.0001Z" fill="white"/>
<path id="Vector_9" d="M30.75 14.76H5.25C4.635 14.76 4.125 14.25 4.125 13.635C4.125 13.02 4.635 12.51 5.25 12.51H30.75C31.365 12.51 31.875 13.02 31.875 13.635C31.875 14.25 31.365 14.76 30.75 14.76Z" fill="white"/>
<path id="Vector_10" d="M24 34.125H12C6.525 34.125 3.375 30.975 3.375 25.5V12.75C3.375 7.275 6.525 4.125 12 4.125H24C29.475 4.125 32.625 7.275 32.625 12.75V25.5C32.625 30.975 29.475 34.125 24 34.125ZM12 6.375C7.71 6.375 5.625 8.46 5.625 12.75V25.5C5.625 29.79 7.71 31.875 12 31.875H24C28.29 31.875 30.375 29.79 30.375 25.5V12.75C30.375 8.46 28.29 6.375 24 6.375H12Z" fill="white"/>
</g>
</g>
</svg>
