<svg width="36" height="36" viewBox="0 0 36 36" fill="none" xmlns="http://www.w3.org/2000/svg">
<g id="vuesax/outline/timer">
<g id="timer">
<path id="Vector" d="M22.8592 34.125H13.1392C10.3042 34.125 8.23425 32.94 7.43925 30.9C6.61425 28.77 7.37925 26.13 9.35925 24.345L16.3192 18L9.35925 11.655C7.37925 9.87 6.61425 7.23 7.43925 5.1C8.23425 3.045 10.3042 1.875 13.1392 1.875H22.8592C25.6942 1.875 27.7642 3.06 28.5592 5.1C29.3842 7.23 28.6192 9.87 26.6392 11.655L19.6792 18L26.6542 24.345C28.6192 26.13 29.3992 28.77 28.5742 30.9C27.7642 32.94 25.6942 34.125 22.8592 34.125ZM17.9992 19.515L10.8742 25.995C9.61425 27.15 9.05925 28.83 9.53925 30.075C9.98925 31.23 11.2642 31.875 13.1392 31.875H22.8592C24.7342 31.875 26.0092 31.245 26.4592 30.075C26.9392 28.83 26.3992 27.15 25.1242 25.995L17.9992 19.515ZM13.1392 4.125C11.2642 4.125 9.98925 4.755 9.53925 5.925C9.05925 7.17 9.59925 8.85 10.8742 10.005L17.9992 16.485L25.1242 10.005C26.3842 8.85 26.9392 7.17 26.4592 5.925C26.0092 4.77 24.7342 4.125 22.8592 4.125H13.1392Z" fill="white"/>
</g>
</g>
</svg>
